<svg version="1.1" id="Capa_1" xmlns="http://www.w3.org/2000/svg" xmlns:xlink="http://www.w3.org/1999/xlink" x="0px" y="0px"viewBox="0 0 453.4 453.4" style="enable-background:new 0 0 453.4 453.4;" xml:space="preserve"><g><g><path d="M53.52,265.396c-2.239,1.455-3.604,3.93-3.64,6.6v105.64c2.04,0,102.6-0.28,102.6-0.28v-164.96l15.56-11.44c0.034,0.426,0.034,0.854,0,1.28v175.12H193v-214.48L53.52,265.396z"/></g></g><g><g><path d="M397.4,389.236H56c-30.928,0-56,25.072-56,56c-0.001,4.341,3.46,7.891,7.8,8h437.6c4.418,0,8-3.582,8-8C453.4,414.308,428.328,389.236,397.4,389.236z"/></g></g><g><g><path d="M367.239,0.173c-1.457,0.067-2.867,0.531-4.079,1.342L208.6,115.156c-2.239,1.455-3.604,3.93-3.64,6.6v255.6h100l-0.12-308.64l15.56-11.44c0.035,0.426,0.035,0.854,0,1.28v318.8h55.2V7.795C375.396,3.382,371.653-0.031,367.239,0.173z"/></g></g></svg>