<svg id="Capa_1" enable-background="new 0 0 512 512" height="512" viewBox="0 0 512 512" width="512" xmlns="http://www.w3.org/2000/svg"><path d="m270 311.75v64.5c0 29.685-60.442 53.75-135 53.75s-135-24.065-135-53.75v-64.5z" fill="#fcd232"/><path d="m135 430c74.558 0 135-24.065 135-53.75v-64.5h-135z" fill="#f7b90f"/><path d="m270 247.25v64.5c0 29.685-60.442 53.75-135 53.75s-135-24.065-135-53.75v-64.5z" fill="#f7b90f"/><path d="m135 365.5c74.558 0 135-24.065 135-53.75v-64.5h-135z" fill="#f1a000"/><path d="m270 182.75v64.5c0 29.685-60.442 53.75-135 53.75s-135-24.065-135-53.75v-64.5z" fill="#fcd232"/><path d="m135 301c74.558 0 135-24.065 135-53.75v-64.5h-135z" fill="#f7b90f"/><path d="m270 118.25v64.5c0 29.685-60.442 53.75-135 53.75s-135-24.065-135-53.75v-64.5z" fill="#f7b90f"/><path d="m135 236.5c74.558 0 135-24.065 135-53.75v-64.5h-135z" fill="#f1a000"/><path d="m270 53.75v64.5c0 29.685-60.442 53.75-135 53.75s-135-24.065-135-53.75v-64.5z" fill="#fcd232"/><path d="m135 172c74.558 0 135-24.065 135-53.75v-64.5h-135z" fill="#f7b90f"/><ellipse cx="135" cy="53.75" fill="#ffee78" rx="135" ry="53.75"/><path d="m270 53.75c0-29.685-60.442-53.75-135-53.75v107.5c74.558 0 135-24.065 135-53.75z" fill="#fcd232"/><circle cx="367" cy="367" fill="#ffee78" r="130"/><path d="m497 367c0-71.797-58.203-130-130-130v260c71.797 0 130-58.203 130-130z" fill="#fcd232"/><path d="m367 512c-79.953 0-145-65.047-145-145s65.047-145 145-145 145 65.047 145 145-65.047 145-145 145zm0-260c-63.411 0-115 51.589-115 115s51.589 115 115 115 115-51.589 115-115-51.589-115-115-115z" fill="#fcd232"/><path d="m482 367c0 63.411-51.589 115-115 115v30c79.953 0 145-65.047 145-145s-65.047-145-145-145v30c63.411 0 115 51.589 115 115z" fill="#f7b90f"/><path d="m367 352c-8.271 0-15-6.729-15-15s6.729-15 15-15 15 6.729 15 15c0 8.284 6.716 15 15 15s15-6.716 15-15c0-19.555-12.541-36.228-30-42.42v-7.58c0-8.284-6.716-15-15-15s-15 6.716-15 15v7.58c-17.459 6.192-30 22.865-30 42.42 0 24.813 20.187 45 45 45 8.271 0 15 6.729 15 15s-6.729 15-15 15-15-6.729-15-15c0-8.284-6.716-15-15-15s-15 6.716-15 15c0 19.555 12.541 36.228 30 42.42v7.58c0 8.284 6.716 15 15 15s15-6.716 15-15v-7.58c17.459-6.192 30-22.865 30-42.42 0-24.813-20.187-45-45-45z" fill="#fcd232"/><g fill="#f7b90f"><path d="m382 337c0 8.284 6.716 15 15 15s15-6.716 15-15c0-19.555-12.541-36.228-30-42.42v-7.58c0-8.284-6.716-15-15-15v50c8.271 0 15 6.729 15 15z"/><path d="m382 447v-7.58c17.459-6.192 30-22.865 30-42.42 0-24.813-20.187-45-45-45v30c8.271 0 15 6.729 15 15s-6.729 15-15 15v50c8.284 0 15-6.716 15-15z"/></g></svg>